<?xml version="1.0" encoding="UTF-8" standalone="no"?>
<svg
   xmlns:dc="http://purl.org/dc/elements/1.1/"
   xmlns:cc="http://creativecommons.org/ns#"
   xmlns:rdf="http://www.w3.org/1999/02/22-rdf-syntax-ns#"
   xmlns:svg="http://www.w3.org/2000/svg"
   xmlns="http://www.w3.org/2000/svg"
   xmlns:sodipodi="http://sodipodi.sourceforge.net/DTD/sodipodi-0.dtd"
   xmlns:inkscape="http://www.inkscape.org/namespaces/inkscape"
   version="1.1"
   id="Layer_1"
   x="0px"
   y="0px"
   width="400px"
   height="400px"
   viewBox="0 0 400 400"
   enable-background="new 0 0 400 400"
   xml:space="preserve"
   sodipodi:docname="icon.svg"
   inkscape:version="0.92.5 (2060ec1f9f, 2020-04-08)"><metadata
   id="metadata8"><rdf:RDF><cc:Work
       rdf:about=""><dc:format>image/svg+xml</dc:format><dc:type
         rdf:resource="http://purl.org/dc/dcmitype/StillImage" /></cc:Work></rdf:RDF></metadata><defs
   id="defs6" /><sodipodi:namedview
   pagecolor="#ffffff"
   bordercolor="#666666"
   borderopacity="1"
   objecttolerance="10"
   gridtolerance="10"
   guidetolerance="10"
   inkscape:pageopacity="0"
   inkscape:pageshadow="2"
   inkscape:window-width="1920"
   inkscape:window-height="1080"
   id="namedview4"
   showgrid="false"
   inkscape:zoom="0.59"
   inkscape:cx="127.11864"
   inkscape:cy="200"
   inkscape:window-x="0"
   inkscape:window-y="0"
   inkscape:window-maximized="0"
   inkscape:current-layer="Layer_1" />  
<g
   id="g4719"
   transform="matrix(6.2446568,0,0,5.7746092,-1244.4066,-1693.8569)"><path
     inkscape:connector-curvature="0"
     id="path4710"
     d="m 225.9269,302.0776 c -6.89885,1.4992 -17.83835,-2.51887 -22.42452,4.36308 -0.32346,7.61189 11.38114,4.58571 15.98432,5.78854 12.8857,-0.32243 26.82444,2.08669 39.14346,-1.92202 4.84056,-5.65075 -3.83851,-9.20009 -8.54078,-8.00781 -8.04891,-0.32633 -16.10892,-0.23986 -24.16248,-0.22179 z"
     style="opacity:0.98999999;fill:#0d99cc;fill-opacity:1;stroke:#000004;stroke-width:1.69491529;stroke-opacity:0.2" /><path
     inkscape:connector-curvature="0"
     id="path4712"
     d="m 242.89592,322.40996 c -3.91237,-0.43393 -14.22105,0.71011 -10.30852,6.82931 6.05719,5.61283 17.35074,4.68128 23.99364,0.36746 5.39867,-4.60969 -3.79964,-8.03559 -7.66022,-7.10739 -2.00583,-0.12149 -4.0165,-0.1222 -6.0249,-0.0894 z"
     style="opacity:0.98999999;fill:#0d99cc;fill-opacity:1;stroke:#000004;stroke-width:1.69491529;stroke-opacity:0.2" /><path
     inkscape:connector-curvature="0"
     id="path4714"
     d="m 231.58766,341.65983 c -5.12305,0.74869 -15.75528,-0.34514 -16.41949,6.58765 6.71127,6.52927 18.32768,3.82247 26.89824,4.55061 5.31808,-1.10138 15.61462,0.43901 17.34169,-6.176 -6.83253,-6.07592 -19.27945,-4.21152 -27.82044,-4.96226 z"
     style="opacity:0.98999999;fill:#0d99cc;fill-opacity:1;stroke:#000004;stroke-width:1.69491529;stroke-opacity:0.2" /></g></svg>